<!--?xml version="1.0" standalone="no"?--><svg version="1.0" xmlns="http://www.w3.org/2000/svg" width="300.000000pt" height="225.000000pt" viewBox="0 0 300.000000 225.000000" preserveAspectRatio="xMidYMid meet">
<metadata>
  <rdf:rdf xmlns:rdf="http://www.w3.org/1999/02/22-rdf-syntax-ns#" xmlns:rdfs="http://www.w3.org/2000/01/rdf-schema#" xmlns:dc="http://purl.org/dc/elements/1.1/">
    <rdf:description dc:title="family clipart" dc:publisher="Hiox" dc:date="2015-04-11" dc:format="image/svg+xml" dc:language="en">
      <dc:creator>
        <rdf:bag>
          <rdf:li>svgimages.com</rdf:li>
        </rdf:bag>
      </dc:creator>
    </rdf:description>
  </rdf:rdf>
</metadata>
<g transform="translate(0.000000,225.000000) scale(0.100000,-0.100000)" fill="#060606" stroke="none">
<path d="M647 2060 c-31 -25 -81 -109 -79 -134 2 -28 -45 -95 -83 -117 -39
-23 -43 -32 -52 -107 -3 -31 -17 -83 -30 -116 -16 -43 -23 -80 -23 -132 0 -40
-7 -108 -15 -151 -18 -94 -12 -159 17 -166 15 -4 18 -2 13 11 -3 9 -9 29 -12
45 -5 22 -3 26 11 21 14 -5 16 3 16 63 0 44 7 92 20 128 11 32 20 72 20 89 0
17 9 49 19 71 l18 40 6 -30 c17 -89 17 -126 -3 -216 -18 -81 -59 -229 -76
-273 -4 -10 6 -16 34 -21 l40 -6 11 -62 c6 -34 13 -94 17 -133 5 -68 24 -112
76 -186 9 -13 8 -32 -5 -90 -20 -86 -21 -110 -5 -126 16 -16 51 -15 66 0 10
10 13 -3 12 -67 -3 -137 -5 -130 45 -130 l44 0 -4 65 c-17 230 -17 237 5 316
19 66 21 91 15 174 -5 75 -3 115 10 173 l17 76 46 8 c26 4 52 7 57 8 13 1 14
-3 -38 140 -24 66 -58 147 -75 179 -36 67 -40 111 -13 170 l17 40 17 -60 c9
-33 17 -67 17 -75 0 -8 16 -48 36 -89 52 -109 74 -170 74 -209 0 -25 4 -32 15
-27 8 3 22 -2 31 -12 15 -15 18 -15 27 -1 9 14 17 14 83 0 59 -12 80 -13 106
-3 18 6 43 9 56 6 18 -5 22 -14 24 -48 1 -46 2 -41 -14 -157 -11 -84 -11 -90
21 -215 18 -71 37 -134 42 -140 5 -6 13 -42 18 -80 10 -67 10 -69 -17 -97
l-26 -28 23 -6 c18 -4 21 -11 17 -29 -9 -34 1 -50 34 -52 23 -2 28 1 24 13 -4
8 -1 15 4 15 8 0 8 9 0 30 -8 25 -7 34 6 49 13 14 14 24 6 45 -14 39 -12 72 5
86 11 9 15 33 15 89 0 42 7 115 16 164 11 57 13 100 8 125 -9 40 -8 89 1 140
6 33 25 35 25 3 0 -10 23 -63 51 -117 37 -72 55 -99 70 -100 15 -1 18 3 13 20
-3 11 -12 28 -19 36 -12 14 -50 107 -73 180 -6 19 -8 48 -5 63 6 31 -19 67
-47 67 -25 0 -45 27 -33 43 7 7 7 37 3 77 -10 77 -35 106 -84 96 -45 -9 -49
-18 -56 -103 l-5 -77 -32 -7 c-18 -3 -41 -17 -51 -29 -16 -20 -27 -22 -87 -21
-84 2 -115 9 -115 27 0 8 -16 31 -35 53 -26 29 -39 56 -51 107 -9 38 -25 96
-36 129 -11 33 -22 101 -25 150 -6 100 -17 126 -62 145 -17 7 -31 16 -31 20 0
4 16 34 36 66 30 50 34 65 29 99 -3 22 -14 48 -23 58 -44 49 -121 61 -165 27z
m15 -1097 c2 -49 3 -122 4 -163 0 -41 4 -109 8 -152 4 -42 4 -98 -1 -125 -8
-47 -8 -46 -14 42 -12 172 -21 240 -36 277 -13 31 -14 48 -3 122 9 61 16 86
26 86 11 0 15 -20 16 -87z" id="node1" class="node"></path>
<path d="M2328 2062 c-32 -20 -47 -49 -42 -82 4 -30 27 -97 37 -106 14 -15 6
-34 -13 -34 -27 0 -70 -22 -93 -48 -11 -12 -24 -54 -32 -101 -15 -81 -45 -157
-72 -176 -8 -6 -14 -18 -12 -26 5 -26 -23 -104 -57 -159 -19 -31 -34 -62 -34
-70 0 -8 -10 -38 -22 -67 l-23 -51 -62 -7 c-35 -4 -65 -11 -68 -16 -9 -14 -35
-11 -35 4 0 8 9 24 20 37 22 25 26 79 10 111 -13 24 -81 26 -104 3 -20 -20
-21 -76 -1 -114 14 -28 14 -31 -5 -50 -11 -11 -28 -20 -39 -20 -31 0 -43 -25
-52 -112 -8 -64 -6 -91 5 -124 8 -23 12 -45 9 -47 -2 -3 3 -19 12 -36 18 -36
22 -230 6 -336 -5 -35 -5 -65 0 -71 6 -7 4 -16 -6 -24 -26 -22 -17 -38 24 -42
28 -2 37 0 34 9 -3 7 0 13 6 13 6 0 11 8 11 18 0 10 5 23 11 29 6 6 12 76 15
168 3 87 9 165 13 173 11 19 28 -55 42 -178 12 -109 28 -159 52 -172 29 -15
44 5 31 41 -9 22 -8 30 4 37 12 8 12 19 -2 89 -9 44 -18 114 -21 155 -3 41 -9
98 -14 125 -6 28 -10 85 -10 128 -1 90 18 137 55 137 13 0 29 7 38 15 8 8 22
15 30 15 18 0 42 33 51 73 4 15 23 43 42 62 28 28 34 41 30 62 -3 15 -3 33 0
40 5 14 76 64 106 76 9 3 17 16 17 27 0 29 19 62 31 55 14 -9 11 -94 -8 -205
-14 -90 -14 -102 -1 -118 11 -12 17 -50 21 -127 15 -256 29 -413 43 -478 9
-38 14 -85 11 -103 -3 -19 -1 -36 4 -39 5 -4 9 -17 9 -30 0 -13 5 -27 10 -30
8 -5 8 -11 0 -20 -6 -8 -9 -28 -5 -47 6 -33 7 -33 56 -30 49 4 49 4 50 40 1
21 0 44 -1 52 -1 8 14 -3 33 -25 29 -33 32 -41 21 -53 -8 -7 -14 -14 -14 -15
0 -1 22 0 49 1 l49 4 -2 48 c-2 30 -11 59 -25 79 -20 28 -21 32 -7 47 17 16
18 20 20 94 1 25 12 81 25 125 19 67 23 108 24 255 1 96 -2 196 -6 223 -6 31
-5 47 2 47 6 0 11 -9 11 -20 0 -11 5 -20 10 -20 6 0 10 7 10 15 0 8 5 15 11
15 6 0 10 -18 9 -42 -3 -67 0 -75 16 -43 10 23 12 55 8 135 -4 63 -1 136 6
183 7 49 8 83 2 90 -16 21 -32 104 -32 170 0 109 -24 148 -104 162 -45 9 -66
37 -66 89 0 124 -76 190 -162 138z m303 -742 c10 -44 3 -88 -11 -74 -5 5 -12
38 -16 74 -5 50 -4 62 6 54 6 -7 16 -31 21 -54z m-175 -369 c14 -81 15 -109 4
-200 -7 -58 -16 -112 -20 -119 -8 -16 -20 118 -20 234 0 93 13 254 17 209 2
-16 10 -72 19 -124z m-777 -53 c-2 -48 -2 -49 -8 -18 -6 33 -3 70 5 70 2 0 3
-24 3 -52z" id="node2" class="node" stroke-width="20"></path>
</g>
<g transform="translate(0.000000,225.000000) scale(0.100000,-0.100000)" fill="#A1A1A2" stroke="none">





</g>
</svg>